<svg width="278" height="277" viewBox="0 0 278 277" fill="none" xmlns="http://www.w3.org/2000/svg">
<g clip-path="url(#clip0_2:9)">
<path d="M72.5471 190.992C74.6917 191.8 76.4283 193.426 77.376 195.512C78.3237 197.599 78.4051 199.977 77.6023 202.123L51.6336 271.373C50.7711 273.44 49.1411 275.093 47.0861 275.983C45.031 276.873 42.7109 276.932 40.6131 276.148C38.5153 275.364 36.8033 273.797 35.8366 271.776C34.8699 269.756 34.7238 267.44 35.4291 265.314L61.3978 196.064C61.7963 194.999 62.4008 194.022 63.177 193.19C63.9531 192.359 64.8855 191.688 65.921 191.217C66.9565 190.746 68.0747 190.483 69.2116 190.445C70.3486 190.406 71.482 190.592 72.5471 190.992ZM124.485 190.992C126.629 191.8 128.366 193.426 129.314 195.512C130.261 197.599 130.343 199.977 129.54 202.123L103.571 271.373C102.709 273.44 101.079 275.093 99.0236 275.983C96.9685 276.873 94.6484 276.932 92.5506 276.148C90.4529 275.364 88.7408 273.797 87.7741 271.776C86.8074 269.756 86.6613 267.44 87.3666 265.314L113.335 196.064C113.734 194.999 114.338 194.022 115.114 193.19C115.891 192.359 116.823 191.688 117.859 191.217C118.894 190.746 120.012 190.483 121.149 190.445C122.286 190.406 123.42 190.592 124.485 190.992ZM176.422 190.992C178.567 191.8 180.303 193.426 181.251 195.512C182.199 197.599 182.28 199.977 181.477 202.123L155.509 271.373C154.646 273.44 153.016 275.093 150.961 275.983C148.906 276.873 146.586 276.932 144.488 276.148C142.39 275.364 140.678 273.797 139.712 271.776C138.745 269.756 138.599 267.44 139.304 265.314L165.273 196.064C165.671 194.999 166.276 194.022 167.052 193.19C167.828 192.359 168.761 191.688 169.796 191.217C170.831 190.746 171.95 190.483 173.087 190.445C174.224 190.406 175.357 190.592 176.422 190.992ZM228.36 190.992C230.504 191.8 232.241 193.426 233.189 195.512C234.136 197.599 234.218 199.977 233.415 202.123L207.446 271.373C206.584 273.44 204.954 275.093 202.899 275.983C200.844 276.873 198.523 276.932 196.426 276.148C194.328 275.364 192.616 273.797 191.649 271.776C190.682 269.756 190.536 267.44 191.242 265.314L217.21 196.064C217.609 194.999 218.213 194.022 218.989 193.19C219.766 192.359 220.698 191.688 221.734 191.217C222.769 190.746 223.887 190.483 225.024 190.445C226.161 190.406 227.295 190.592 228.36 190.992ZM232.324 69.7175C228.729 51.5941 219.43 35.0961 205.788 22.6358C192.145 10.1754 174.874 2.40626 156.5 0.46419C138.125 -1.47788 119.612 2.50903 103.666 11.842C87.7195 21.1749 75.1773 35.3644 67.8727 52.3357C59.6811 51.3921 51.383 52.1303 43.4866 54.5051C35.5902 56.88 28.2616 60.8415 21.9495 66.1472C15.6374 71.4529 10.4746 77.9912 6.77725 85.3615C3.07989 92.7319 0.92575 100.779 0.446727 109.011C-0.0322958 117.243 1.17388 125.486 3.99139 133.236C6.80891 140.985 11.1785 148.078 16.8326 154.08C22.4867 160.082 29.3063 164.867 36.874 168.142C44.4416 171.417 52.598 173.112 60.8438 173.125H225.313C238.489 173.14 251.179 168.146 260.812 159.155C270.444 150.164 276.299 137.848 277.19 124.701C278.082 111.555 273.943 98.5607 265.612 88.3516C257.282 78.1424 245.382 71.4813 232.324 69.7175Z" fill="white"/>
</g>
<defs>
<clipPath id="clip0_2:9">
<rect width="277" height="277" fill="white" transform="translate(0.25)"/>
</clipPath>
</defs>
</svg>
